<svg xmlns="http://www.w3.org/2000/svg" fill="none" overflow="visible" preserveAspectRatio="none" style="display:block" viewBox="0 0 40 40"><path fill="var(--fill-0, #ffe000)" d="M6.667 30q-.709 0-1.187-.48A1.62 1.62 0 0 1 5 28.333a1.6 1.6 0 0 1 .48-1.186q.482-.48 1.187-.48h26.666q.71 0 1.189.48T35 28.333a1.63 1.63 0 0 1-.48 1.189q-.478.48-1.187.478zm0-8.333q-.709 0-1.187-.48A1.62 1.62 0 0 1 5 20a1.6 1.6 0 0 1 .48-1.187q.482-.48 1.187-.48h26.666q.71 0 1.189.48T35 20a1.63 1.63 0 0 1-.48 1.188q-.478.481-1.187.479zm0-8.334q-.709 0-1.187-.48A1.62 1.62 0 0 1 5 11.667a1.6 1.6 0 0 1 .48-1.187Q5.962 10 6.667 10h26.666q.71 0 1.189.48T35 11.667a1.63 1.63 0 0 1-.48 1.188q-.478.481-1.187.478z"/></svg>