<svg preserveAspectRatio="none" width="100%" height="100%" overflow="visible" style="display: block;" viewBox="0 0 40 40" fill="none" xmlns="http://www.w3.org/2000/svg">
<g id="material-symbols-light:close-rounded">
<path id="Vector" d="M20 21.18L11.2567 29.9233C11.1011 30.0789 10.91 30.1622 10.6833 30.1733C10.4567 30.1844 10.2544 30.1011 10.0767 29.9233C9.89889 29.7456 9.81 29.5489 9.81 29.3333C9.81 29.1178 9.89889 28.9211 10.0767 28.7433L18.82 20L10.0767 11.2567C9.92111 11.1011 9.83778 10.91 9.82667 10.6833C9.81556 10.4567 9.89889 10.2544 10.0767 10.0767C10.2544 9.89889 10.4511 9.81 10.6667 9.81C10.8822 9.81 11.0789 9.89889 11.2567 10.0767L20 18.82L28.7433 10.0767C28.8989 9.92111 29.0906 9.83778 29.3183 9.82667C29.5439 9.81556 29.7456 9.89889 29.9233 10.0767C30.1011 10.2544 30.19 10.4511 30.19 10.6667C30.19 10.8822 30.1011 11.0789 29.9233 11.2567L21.18 20L29.9233 28.7433C30.0789 28.8989 30.1622 29.0906 30.1733 29.3183C30.1844 29.5439 30.1011 29.7456 29.9233 29.9233C29.7456 30.1011 29.5489 30.19 29.3333 30.19C29.1178 30.19 28.9211 30.1011 28.7433 29.9233L20 21.18Z" fill="var(--fill-0, black)"/>
</g>
</svg>
