<svg xmlns="http://www.w3.org/2000/svg" fill="none" overflow="visible" preserveAspectRatio="none" style="display:block" viewBox="0 0 48 48"><path fill="var(--fill-0, white)" d="M19.078 30.46q-4.796 0-8.13-3.332Q7.616 23.798 7.616 19t3.332-8.13 8.13-3.33 8.128 3.332T30.538 19q0 2.084-.738 4.034t-1.94 3.336l11.818 11.814q.28.28.3.69.018.406-.3.726-.32.32-.708.32t-.708-.32L26.446 27.784q-1.5 1.278-3.45 1.978t-3.92.7m0-2q3.98 0 6.722-2.74 2.74-2.74 2.74-6.722T25.8 12.28q-2.737-2.738-6.72-2.74-3.982 0-6.722 2.74T9.616 19t2.74 6.72 6.72 2.74"/></svg>